<?xml version="1.0" encoding="UTF-8"?>
<svg version="1.1" xmlns="http://www.w3.org/2000/svg" width="48" height="48">
<path d="M0 0 C0.75 2.1875 0.75 2.1875 1 5 C-0.9375 7.8125 -0.9375 7.8125 -3 10 C-2.443125 10.226875 -1.88625 10.45375 -1.3125 10.6875 C1.72662564 12.41240914 3.75753345 14.32149829 6 17 C6.3125 19.8125 6.3125 19.8125 6 22 C4.27734375 22.72265625 4.27734375 22.72265625 2 23 C-0.44358254 21.31703171 -2.5016468 19.37848495 -4.68359375 17.37109375 C-6.93759323 15.67879655 -6.93759323 15.67879655 -9.55078125 16.578125 C-11.95931108 17.97637836 -13.7821883 19.34904187 -15.75 21.3125 C-16.34296875 21.88613281 -16.9359375 22.45976562 -17.546875 23.05078125 C-19.34159757 25.45821825 -19.88857128 26.99606751 -20 30 C-18.71874277 32.22306481 -18.71874277 32.22306481 -16.75 34.125 C-16.12609375 34.78757813 -15.5021875 35.45015625 -14.859375 36.1328125 C-14.24578125 36.74898437 -13.6321875 37.36515625 -13 38 C-12.21302734 38.86238281 -12.21302734 38.86238281 -11.41015625 39.7421875 C-10.02731131 41.25655105 -10.02731131 41.25655105 -7.6875 41 C-4.73699582 40.0830191 -4.73699582 40.0830191 -2 37.375 C1 35 1 35 3.875 35.1875 C4.57625 35.455625 5.2775 35.72375 6 36 C5.34170069 41.22130545 3.36875461 43.34229276 -0.62109375 46.58984375 C-4.01778116 48.60331527 -6.63839843 48.97732895 -10.546875 48.68359375 C-15.12104984 47.40894312 -17.86458001 44.42412033 -21 41 C-21.88751953 40.13761719 -21.88751953 40.13761719 -22.79296875 39.2578125 C-25.6037836 36.36020289 -27.34412335 33.95735232 -28.0625 29.9375 C-27.91876226 20.88202267 -21.13858557 15.62147722 -15.125 9.625 C-14.22652344 8.69816406 -13.32804687 7.77132813 -12.40234375 6.81640625 C-11.52964844 5.94113281 -10.65695313 5.06585937 -9.7578125 4.1640625 C-8.9652002 3.36436035 -8.17258789 2.5646582 -7.35595703 1.74072266 C-4.63426791 -0.27022485 -3.30546146 -0.39055885 0 0 Z " fill="#2C2922" transform="translate(31,0)"/>
<path d="M0 0 C0.33 0.99 0.66 1.98 1 3 C2.0828125 2.8453125 2.0828125 2.8453125 3.1875 2.6875 C7.79298368 3.19922041 9.74984302 6.5798908 12.6953125 9.92578125 C15.9902984 13.76782682 15.9902984 13.76782682 20.5625 15.25 C23.24758845 13.99747359 23.24758845 13.99747359 26 11.375 C29 9 29 9 31.875 9.1875 C32.57625 9.455625 33.2775 9.72375 34 10 C33.34170069 15.22130545 31.36875461 17.34229276 27.37890625 20.58984375 C23.98221884 22.60331527 21.36160157 22.97732895 17.453125 22.68359375 C12.87895016 21.40894312 10.13541999 18.42412033 7 15 C6.40832031 14.42507812 5.81664062 13.85015625 5.20703125 13.2578125 C1.08686153 9.01041664 0.20661805 5.88861435 0 0 Z " fill="#181307" transform="translate(3,26)"/>
<path d="M0 0 C8.25 0 16.5 0 25 0 C25 1.65 25 3.3 25 5 C22.52401267 7.47598733 15.89139842 6.1855126 12.5625 6.1875 C10.94891602 6.20586914 10.94891602 6.20586914 9.30273438 6.22460938 C8.27599609 6.22654297 7.24925781 6.22847656 6.19140625 6.23046875 C4.77130249 6.23663208 4.77130249 6.23663208 3.32250977 6.24291992 C1 6 1 6 -1 4 C-0.67 2.68 -0.34 1.36 0 0 Z " fill="#B1AFAE" transform="translate(19,26)"/>
<path d="M0 0 C0.70125 0.268125 1.4025 0.53625 2.125 0.8125 C1.4664713 6.03562488 -0.52184096 8.13548254 -4.47265625 11.421875 C-8.4410843 13.71904636 -12.44063186 13.74388216 -16.875 12.8125 C-17.535 12.1525 -18.195 11.4925 -18.875 10.8125 C-17.885 10.4825 -16.895 10.1525 -15.875 9.8125 C-15.58625 9.1525 -15.2975 8.4925 -15 7.8125 C-14.62875 7.1525 -14.2575 6.4925 -13.875 5.8125 C-13.1325 5.668125 -12.39 5.52375 -11.625 5.375 C-8.57616577 4.98742363 -8.57616577 4.98742363 -5.875 2.1875 C-2.875 -0.1875 -2.875 -0.1875 0 0 Z " fill="#E3A01D" transform="translate(34.875,35.1875)"/>
<path d="M0 0 C3.98588425 2.16376573 7.08608344 4.50330013 10 8 C10.3125 10.8125 10.3125 10.8125 10 13 C8.28515625 13.71484375 8.28515625 13.71484375 6 14 C3.74609375 12.56640625 3.74609375 12.56640625 1.4375 10.5625 C-1.79389047 7.55806668 -1.79389047 7.55806668 -6 7 C-4.60667426 3.63279613 -3.0210714 2.0140476 0 0 Z " fill="#E6AB36" transform="translate(27,9)"/>
<path d="M0 0 C8.58 0 17.16 0 26 0 C25.67 0.99 25.34 1.98 25 3 C21.20847666 3.0867982 17.41720704 3.14032207 13.625 3.1875 C12.54476563 3.21263672 11.46453125 3.23777344 10.3515625 3.26367188 C8.8046875 3.27817383 8.8046875 3.27817383 7.2265625 3.29296875 C6.27346191 3.3086792 5.32036133 3.32438965 4.33837891 3.34057617 C3.56671387 3.22818604 2.79504883 3.1157959 2 3 C1.34 2.01 0.68 1.02 0 0 Z " fill="#9F9D9B" transform="translate(18,29)"/>
</svg>
